HIERARCHY
ROOT root
{
	OFFSET	0	13.1	24.9
	CHANNELS 6  Xposition Yposition Zposition Xrotation Yrotation Zrotation
	JOINT spine_1
	{
		OFFSET	0	9.99999	0
		CHANNELS 3  Xrotation Yrotation Zrotation
		JOINT spine_2
		{
			OFFSET	0	112	-10
			CHANNELS 3  Xrotation Yrotation Zrotation
			JOINT spine_3
			{
				OFFSET	0	206.5	19.3
				CHANNELS 3  Xrotation Yrotation Zrotation
				JOINT spine_4
				{
					OFFSET	0	110.4	14.6
					CHANNELS 3  Xrotation Yrotation Zrotation
					JOINT neck_1
					{
						OFFSET	0	71.8	-50.3
						CHANNELS 3  Xrotation Yrotation Zrotation
						JOINT neck_2
						{
							OFFSET	0	86.2	-25.8
							CHANNELS 3  Xrotation Yrotation Zrotation
							JOINT head_ee
							{
								OFFSET	0	179.8	-8.7
								CHANNELS 3  Xrotation Yrotation Zrotation
								End Site
								{
									OFFSET	1	0	0
								}
							}
						}
					}
					JOINT left_clavicle
					{
						OFFSET	-43.2	22.4	-70.8
						CHANNELS 3  Xrotation Yrotation Zrotation
						JOINT left_shoulder
						{
							OFFSET	-93.9	-5.79999	48.7
							CHANNELS 3  Xrotation Yrotation Zrotation
							JOINT left_elbow
							{
								OFFSET	-291.4	-30.8	15.2
								CHANNELS 3  Xrotation Yrotation Zrotation
								JOINT left_lowarm_twist
								{
									OFFSET	-110.7	-3.89999	13.6
									CHANNELS 3  Xrotation Yrotation Zrotation
									JOINT left_hand
									{
										OFFSET	-110.7	-3.89999	13.6
										CHANNELS 3  Xrotation Yrotation Zrotation
										JOINT left_ee
										{
											OFFSET	-80.8	-5.10001	12.1
											CHANNELS 3  Xrotation Yrotation Zrotation
											End Site
											{
												OFFSET	1	0	0
											}
										}
									}
								}
							}
						}
					}
					JOINT right_clavicle
					{
						OFFSET	43.2	22.4	-70.8
						CHANNELS 3  Xrotation Yrotation Zrotation
						JOINT right_shoulder
						{
							OFFSET	93.9	-5.79999	48.7
							CHANNELS 3  Xrotation Yrotation Zrotation
							JOINT right_elbow
							{
								OFFSET	291.4	-30.8	15.2
								CHANNELS 3  Xrotation Yrotation Zrotation
								JOINT right_lowarm_twist
								{
									OFFSET	110.7	-3.89999	13.6
									CHANNELS 3  Xrotation Yrotation Zrotation
									JOINT right_hand
									{
										OFFSET	110.7	-3.89999	13.6
										CHANNELS 3  Xrotation Yrotation Zrotation
										JOINT right_ee
										{
											OFFSET	80.8	-5.10001	12.1
											CHANNELS 3  Xrotation Yrotation Zrotation
											End Site
											{
												OFFSET	1	0	0
											}
										}
									}
								}
							}
						}
					}
				}
			}
		}
	}
	JOINT left_hip
	{
		OFFSET	-82.8	-127.5	0.300001
		CHANNELS 3  Xrotation Yrotation Zrotation
		JOINT left_knee
		{
			OFFSET	-28.2	-396.7	2.2
			CHANNELS 3  Xrotation Yrotation Zrotation
			JOINT left_ankle
			{
				OFFSET	-11.7	-411.3	35.4
				CHANNELS 3  Xrotation Yrotation Zrotation
				JOINT left_toes
				{
					OFFSET	0	-60	-88.6
					CHANNELS 3  Xrotation Yrotation Zrotation
					JOINT left_foot_ee
					{
						OFFSET	-22.5	-16.5	-42.2
						CHANNELS 3  Xrotation Yrotation Zrotation
						End Site
						{
							OFFSET	1	0	0
						}
					}
				}
			}
		}
	}
	JOINT right_hip
	{
		OFFSET	82.8	-127.5	0.300001
		CHANNELS 3  Xrotation Yrotation Zrotation
		JOINT right_knee
		{
			OFFSET	28.2	-396.7	2.2
			CHANNELS 3  Xrotation Yrotation Zrotation
			JOINT right_ankle
			{
				OFFSET	11.7	-411.3	35.4
				CHANNELS 3  Xrotation Yrotation Zrotation
				JOINT right_toes
				{
					OFFSET	0	-60	-88.6
					CHANNELS 3  Xrotation Yrotation Zrotation
					JOINT right_foot_ee
					{
						OFFSET	22.5	-16.5	-42.2
						CHANNELS 3  Xrotation Yrotation Zrotation
						End Site
						{
							OFFSET	1	0	0
						}
					}
				}
			}
		}
	}
}
MOTION
Frames: 13
Frame Time: 0.02
1372.05 701.618 -1475.22 -12.383362192 29.8711737973 10.8276889394 2.61244 0.0371455 -1.02484 2.61302 0.10228 -1.0204 2.61105 0.269697 -0.989414 2.6097 0.110061 -1.01959 -1.11604 9.43554 -2.08446 -0.863032 18.622 -1.11374 -0.0 0.0 -0.0 4.36751 23.8158 8.72215 -54.1902 -71.4654 17.6115 1.32821 -33.3415 0.39776 21.4848 0.25022 -2.71704 -9.07406 23.0911 -50.718 -0.0 0.0 -0.0 11.0976 20.3027 -21.8539 -56.8512 65.6449 -52.0157 0.345733 9.71873 -0.0293929 15.3784 -0.283254 1.93816 -5.54556 -8.79213 34.3087 0.0 0.0 0.0 5.57523 34.81 -6.65511 -21.732 0.271039 3.30397 30.5364 -9.03407 -4.08558 -1.53581 0.0 0.0 -0.0 0.0 -0.0 37.5142 17.8922 -10.1383 0.903349 0.0382515 0.133344 -16.585 -6.11028 -2.4916 11.7836 -0.0 -0.0 0.0 0.0 0.0 
1372.05 701.618 -1475.22 -12.3553616417 29.6478677546 10.7712773585 2.61244 0.0371455 -1.02484 2.61302 0.10228 -1.0204 2.61105 0.269697 -0.989414 2.6097 0.110061 -1.01959 -1.11604 9.43554 -2.08446 -0.863032 18.622 -1.11374 -0.0 0.0 -0.0 4.36751 23.8158 8.72215 -54.1902 -71.4654 17.6115 1.32821 -33.3415 0.39776 21.4848 0.25022 -2.71704 -9.07406 23.0911 -50.718 -0.0 0.0 -0.0 11.0976 20.3027 -21.8539 -56.8512 65.6449 -52.0157 0.345733 9.71873 -0.0293929 15.3784 -0.283254 1.93816 -5.54556 -8.79213 34.3087 0.0 0.0 0.0 5.57523 34.81 -6.65511 -21.732 0.271039 3.30397 30.5364 -9.03407 -4.08558 -1.53581 0.0 0.0 -0.0 0.0 -0.0 37.5142 17.8922 -10.1383 0.903349 0.0382515 0.133344 -16.585 -6.11028 -2.4916 11.7836 -0.0 -0.0 0.0 0.0 0.0 
1366.04959811 697.387 -1490.34938046 -12.7249047239 29.7575949298 10.7835382523 2.56312 0.0698814 -0.848297 2.56351 0.123717 -0.842132 2.56159 0.262039 -0.809834 2.5607 0.130857 -0.841052 0.237675 9.60195 -2.56178 0.572843 19.187 -1.82303 -0.0 0.0 -0.0 3.74952 23.4183 7.86953 -55.5945 -70.3137 17.5765 1.32016 -33.1819 0.393347 21.036 0.255473 -2.65995 -9.09036 23.2017 -50.7157 -0.0 0.0 -0.0 11.211 21.0685 -22.0532 -57.4637 65.9956 -49.8442 0.376477 10.5643 -0.0348065 14.8401 -0.282181 1.8694 -5.51656 -8.67306 34.1638 0.0 0.0 0.0 5.5389 33.9996 -6.91761 -22.7416 0.25301 3.45785 30.0041 -9.55664 -4.03814 -1.78229 0.0 0.0 -0.0 0.0 -0.0 37.4698 17.7377 -10.3839 0.722024 0.0304045 0.106626 -16.8754 -7.33627 -2.53383 11.4613 -0.0 -0.0 0.0 0.0 0.0 
1366.17452009 697.387 -1490.39833034 -12.6661112227 29.2968226251 10.6642431686 2.56312 0.0698814 -0.848297 2.56351 0.123717 -0.842132 2.56159 0.262039 -0.809834 2.5607 0.130857 -0.841052 0.237675 9.60195 -2.56178 0.572843 19.187 -1.82303 -0.0 0.0 -0.0 3.74952 23.4183 7.86953 -55.5945 -70.3137 17.5765 1.32016 -33.1819 0.393347 21.036 0.255473 -2.65995 -9.09036 23.2017 -50.7157 -0.0 0.0 -0.0 11.211 21.0685 -22.0532 -57.4637 65.9956 -49.8442 0.376477 10.5643 -0.0348065 14.8401 -0.282181 1.8694 -5.51656 -8.67306 34.1638 0.0 0.0 0.0 5.5389 33.9996 -6.91761 -22.7416 0.25301 3.45785 30.0041 -9.55664 -4.03814 -1.78229 0.0 0.0 -0.0 0.0 -0.0 37.4698 17.7377 -10.3839 0.722024 0.0304045 0.106626 -16.8754 -7.33627 -2.53383 11.4613 -0.0 -0.0 0.0 0.0 0.0 
1366.3144682 697.387 -1490.45176454 -12.6020704674 28.7822413446 10.5323140831 2.56312 0.0698814 -0.848297 2.56351 0.123717 -0.842132 2.56159 0.262039 -0.809834 2.5607 0.130857 -0.841052 0.237675 9.60195 -2.56178 0.572843 19.187 -1.82303 -0.0 0.0 -0.0 3.74952 23.4183 7.86953 -55.5945 -70.3137 17.5765 1.32016 -33.1819 0.393347 21.036 0.255473 -2.65995 -9.09036 23.2017 -50.7157 -0.0 0.0 -0.0 11.211 21.0685 -22.0532 -57.4637 65.9956 -49.8442 0.376477 10.5643 -0.0348065 14.8401 -0.282181 1.8694 -5.51656 -8.67306 34.1638 0.0 0.0 0.0 5.5389 33.9996 -6.91761 -22.7416 0.25301 3.45785 30.0041 -9.55664 -4.03814 -1.78229 0.0 0.0 -0.0 0.0 -0.0 37.4698 17.7377 -10.3839 0.722024 0.0304045 0.106626 -16.8754 -7.33627 -2.53383 11.4613 -0.0 -0.0 0.0 0.0 0.0 
1366.57450831 697.387 -1490.54716434 -12.4879970268 27.8304302468 10.2917555698 2.56312 0.0698814 -0.848297 2.56351 0.123717 -0.842132 2.56159 0.262039 -0.809834 2.5607 0.130857 -0.841052 0.237675 9.60195 -2.56178 0.572843 19.187 -1.82303 -0.0 0.0 -0.0 3.74952 23.4183 7.86953 -55.5945 -70.3137 17.5765 1.32016 -33.1819 0.393347 21.036 0.255473 -2.65995 -9.09036 23.2017 -50.7157 -0.0 0.0 -0.0 11.211 21.0685 -22.0532 -57.4637 65.9956 -49.8442 0.376477 10.5643 -0.0348065 14.8401 -0.282181 1.8694 -5.51656 -8.67306 34.1638 0.0 0.0 0.0 5.5389 33.9996 -6.91761 -22.7416 0.25301 3.45785 30.0041 -9.55664 -4.03814 -1.78229 0.0 0.0 -0.0 0.0 -0.0 37.4698 17.7377 -10.3839 0.722024 0.0304045 0.106626 -16.8754 -7.33627 -2.53383 11.4613 -0.0 -0.0 0.0 0.0 0.0 
1349.75113518 705.211 -1524.86031821 -13.4663732139 29.7844912349 11.1238898284 2.48362 -0.00689588 -0.618696 2.48383 0.0324866 -0.617881 2.48344 0.135599 -0.603693 2.48293 0.0385574 -0.617532 0.541656 10.2025 -4.17602 1.03247 21.5458 -3.59435 -0.0 0.0 -0.0 3.24687 16.7992 7.0306 -45.6404 -66.305 34.4459 1.20248 -30.7799 0.331001 19.5381 0.269765 -2.46917 -8.9042 22.1031 -50.4646 -0.0 0.0 -0.0 11.7229 20.0424 -23.2964 -58.9677 66.7964 -43.2271 0.39891 11.1783 -0.0390374 14.5094 -0.281202 1.82718 -5.53086 -11.4222 32.2762 0.0 0.0 0.0 5.01095 33.1346 -6.46454 -23.262 0.24266 3.53703 24.4606 -10.6766 -3.42361 -1.77854 0.0 0.0 -0.0 0.0 -0.0 37.4857 18.0478 -11.3048 -2.19515 -0.0841392 -0.326355 -15.5056 -6.75073 -2.32657 13.6243 -0.0 -0.0 0.0 0.0 0.0 
1351.10317238 705.211 -1525.44579991 -13.2673204006 28.2752063346 10.7137328666 2.48362 -0.00689588 -0.618696 2.48383 0.0324866 -0.617881 2.48344 0.135599 -0.603693 2.48293 0.0385574 -0.617532 0.541656 10.2025 -4.17602 1.03247 21.5458 -3.59435 -0.0 0.0 -0.0 3.24687 16.7992 7.0306 -45.6404 -66.305 34.4459 1.20248 -30.7799 0.331001 19.5381 0.269765 -2.46917 -8.9042 22.1031 -50.4646 -0.0 0.0 -0.0 11.7229 20.0424 -23.2964 -58.9677 66.7964 -43.2271 0.39891 11.1783 -0.0390374 14.5094 -0.281202 1.82718 -5.53086 -11.4222 32.2762 0.0 0.0 0.0 5.01095 33.1346 -6.46454 -23.262 0.24266 3.53703 24.4606 -10.6766 -3.42361 -1.77854 0.0 0.0 -0.0 0.0 -0.0 37.4857 18.0478 -11.3048 -2.19515 -0.0841392 -0.326355 -15.5056 -6.75073 -2.32657 13.6243 -0.0 -0.0 0.0 0.0 0.0 
1343.63686124 709.76 -1544.75588908 -12.9397679377 28.6134139073 10.6127602679 2.35897 0.0662008 -0.352767 2.35904 0.0885139 -0.34784 2.35848 0.146282 -0.327763 2.35835 0.0926829 -0.346752 0.512708 10.0379 -4.06647 0.982576 21.1664 -3.48153 -0.0 0.0 -0.0 3.5808 14.4332 7.5011 -42.3188 -63.0419 40.4317 0.979548 -25.884 0.225107 20.294 0.263176 -2.56549 -8.54584 21.325 -48.0222 -0.0 0.0 -0.0 12.0957 19.5252 -24.1867 -59.5535 67.5349 -39.0722 0.410454 11.4933 -0.0413064 14.085 -0.279588 1.77299 -5.26833 -11.5993 30.1611 0.0 0.0 0.0 5.16622 29.9289 -6.61505 -23.8009 0.231183 3.61893 22.9534 -12.5687 -3.2756 -2.43329 0.0 0.0 -0.0 0.0 -0.0 37.1533 18.1518 -12.2994 -2.8661 -0.107351 -0.426708 -17.1135 -7.45748 -2.56983 15.2803 -0.0 -0.0 0.0 0.0 0.0 
1307.14308021 708.235 -1574.42146364 -13.5958769997 32.458351008 11.9094162577 2.31895 -0.0974531 -0.317067 2.319 -0.0770799 -0.322625 2.31944 -0.0209654 -0.331042 2.31929 -0.0729839 -0.323577 3.26008 10.3812 -5.27493 4.00719 22.5489 -5.3448 -0.0 0.0 -0.0 1.00426 9.56876 2.8739 -28.5359 -59.4308 61.7669 1.00842 -26.5435 0.237862 17.6189 0.280779 -2.2243 -7.44604 16.0812 -44.0126 -0.0 0.0 -0.0 11.7013 13.8657 -23.5523 -69.8826 69.8647 -24.455 0.448085 12.5151 -0.0491335 11.5621 -0.261716 1.45128 -4.66032 -11.3029 25.9189 0.0 0.0 0.0 3.51474 27.9937 -5.15178 -21.7449 0.270826 3.30593 18.4631 -16.0084 -2.76221 -4.16037 0.0 0.0 -0.0 0.0 -0.0 37.6232 18.9371 -13.0352 -7.87567 -0.243252 -1.18325 -12.9867 -7.83793 -1.94322 26.4337 -0.0 -0.0 0.0 0.0 0.0 
1236.58665652 709.79 -1594.60515618 -8.79243442819 40.1868079078 8.92420461311 1.78768 -0.123533 -0.327598 1.78773 -0.102437 -0.334794 1.78834 -0.0406565 -0.347746 1.78818 -0.095066 -0.336961 1.71016 12.349 -5.39692 2.57051 26.2399 -5.0654 -0.0 0.0 -0.0 0.121193 2.97128 0.580628 -16.001 -56.5912 87.6294 0.584117 -16.1382 0.0828114 17.1472 0.28223 -2.16406 -5.29477 7.8124 -33.0176 -0.0 0.0 -0.0 11.3782 13.7988 -22.8224 -74.9007 70.6459 -14.2158 0.494614 13.7674 -0.0597126 7.57852 -0.204716 0.945721 -4.10392 -5.50709 25.4738 0.0 0.0 0.0 4.84264 17.9531 -3.26873 -32.0419 -0.0395443 4.85362 6.86015 -12.0587 -1.04931 -6.07719 0.0 0.0 -0.0 0.0 -0.0 32.0441 19.5811 -10.8138 -17.5953 -0.316512 -2.67101 -3.25479 -3.1515 -0.481869 35.2503 -0.0 -0.0 0.0 0.0 0.0 
1216.97846295 707.578 -1608.16670516 -7.71581339429 42.0853175327 8.21376422144 1.66821 0.105571 -0.27766 1.66824 0.123026 -0.27038 1.66765 0.170091 -0.243536 1.66759 0.129495 -0.267342 0.813934 12.1404 -5.62903 1.60729 26.1458 -5.12605 -0.0 0.0 -0.0 -0.614709 0.669757 -1.09897 -21.3349 -60.8064 86.1898 0.810432 -21.8736 0.156607 17.5766 0.280929 -2.21889 -4.44161 4.99272 -28.2847 -0.0 0.0 -0.0 11.7402 13.4827 -23.6504 -76.0355 69.1471 -12.3333 0.629754 17.326 -0.0959509 7.10261 -0.19556 0.885618 -3.98471 -4.71593 25.0611 0.0 0.0 0.0 6.25271 19.3706 -4.22031 -33.8632 -0.123187 5.12055 3.93663 -14.7134 -0.619253 -7.79337 0.0 0.0 -0.0 0.0 -0.0 31.4304 21.4049 -11.712 -19.8297 -0.297626 -3.01331 -0.653212 -0.786837 -0.0965995 40.1176 -0.0 -0.0 0.0 0.0 0.0 
1195.25972188 705.938 -1616.63008032 -8.69637601678 45.410895411 8.90879133586 1.53731 0.207791 -0.258277 1.53732 0.223804 -0.244532 1.53635 0.264956 -0.199205 1.53637 0.23017 -0.23855 -0.951622 12.5774 -5.16131 -0.305309 26.7027 -4.14729 -0.0 0.0 -0.0 -0.991317 -1.03204 -2.05473 -19.577 -60.755 89.6117 0.775865 -21.0237 0.143967 17.6568 0.280641 -2.22913 -3.72876 2.53794 -24.4124 -0.0 0.0 -0.0 11.7405 14.1055 -23.6345 -77.1407 67.7157 -7.08192 0.7161 19.5314 -0.123252 6.14702 -0.175667 0.765172 -3.95455 -3.51662 25.5238 0.0 0.0 0.0 6.45721 17.746 -3.96713 -35.392 -0.199926 5.3425 1.70431 -14.5991 -0.269693 -8.43486 0.0 0.0 -0.0 0.0 -0.0 30.6505 22.2803 -11.5918 -21.5044 -0.274728 -3.26924 1.58668 0.488342 0.23407 40.2694 -0.0 -0.0 0.0 0.0 0.0 
